<?xml version="1.0" encoding="utf-8"?>
<svg xmlns="http://www.w3.org/2000/svg" xmlns:xlink="http://www.w3.org/1999/xlink" width="600" height="300" viewBox="0 0 2400 1200">
<defs>
  <clipPath id="clip360">
    <rect x="0" y="0" width="2400" height="1200"/>
  </clipPath>
</defs>
<defs>
  <clipPath id="clip361">
    <rect x="480" y="0" width="1681" height="1200"/>
  </clipPath>
</defs>
<defs>
  <clipPath id="clip362">
    <rect x="47" y="47" width="2307" height="1107"/>
  </clipPath>
</defs>
<polyline clip-path="url(#clip360)" style="stroke:#000000; stroke-linecap:round; stroke-linejoin:round; stroke-width:4; stroke-opacity:1; fill:none" points="47.2441,1152.76 2352.76,1152.76 "/>
<polyline clip-path="url(#clip360)" style="stroke:#000000; stroke-linecap:round; stroke-linejoin:round; stroke-width:4; stroke-opacity:1; fill:none" points="47.2441,1152.76 47.2441,47.2441 "/>
<polyline clip-path="url(#clip362)" style="stroke:#4062d7; stroke-linecap:round; stroke-linejoin:round; stroke-width:4; stroke-opacity:1; fill:none" points="134.464,868.481 156.434,773.723 178.404,757.93 200.374,884.274 222.343,821.102 244.313,836.895 266.283,821.102 288.253,884.274 310.223,868.481 332.193,868.481 354.162,900.067 376.132,805.309 398.102,789.516 420.072,852.688 442.042,773.723 464.011,852.688 485.981,821.102 507.951,821.102 529.921,884.274 551.891,821.102 573.86,821.102 595.83,884.274 617.8,789.516 639.77,836.895 661.74,900.067 683.709,805.309 705.679,821.102 727.649,900.067 749.619,852.688 771.589,789.516 793.559,884.274 815.528,821.102 837.498,836.895 859.468,884.274 881.438,868.481 903.408,821.102 925.377,821.102 947.347,805.309 969.317,836.895 991.287,805.309 1013.26,821.102 1035.23,836.895 1057.2,821.102 1079.17,884.274 1101.14,836.895 1123.11,773.723 1145.08,868.481 1167.05,852.688 1189.02,868.481 1210.98,821.102 1232.95,821.102 1254.92,852.688 1276.89,900.067 1298.86,868.481 1320.83,836.895 1342.8,789.516 1364.77,852.688 1386.74,884.274 1408.71,868.481 1430.68,884.274 1452.65,805.309 1474.62,852.688 1496.59,836.895 1518.56,868.481 1540.53,821.102 1562.5,868.481 1584.47,852.688 1606.44,868.481 1628.41,868.481 1650.38,805.309 1672.35,821.102 1694.32,884.274 1716.29,915.861 1738.26,821.102 1760.23,868.481 1782.2,789.516 1804.17,900.067 1826.14,805.309 1848.11,805.309 1870.08,852.688 1892.05,852.688 1914.02,789.516 1935.99,805.309 1957.96,821.102 1979.93,852.688 2001.9,805.309 2023.87,900.067 2045.84,868.481 2067.81,868.481 2089.78,884.274 2111.75,884.274 2133.72,868.481 2155.69,884.274 2177.66,805.309 2199.63,900.067 2221.6,821.102 2243.57,852.688 2265.54,900.067 2287.51,836.895 "/>
<polyline clip-path="url(#clip362)" style="stroke:#9457b1; stroke-linecap:round; stroke-linejoin:round; stroke-width:4; stroke-opacity:1; fill:none" points="134.464,726.344 156.434,710.551 178.404,678.965 200.374,773.723 222.343,742.137 244.313,647.379 266.283,631.586 288.253,631.586 310.223,663.172 332.193,694.758 354.162,710.551 376.132,663.172 398.102,710.551 420.072,710.551 442.042,663.172 464.011,647.379 485.981,631.586 507.951,663.172 529.921,663.172 551.891,647.379 573.86,647.379 595.83,631.586 617.8,678.965 639.77,710.551 661.74,663.172 683.709,647.379 705.679,631.586 727.649,726.344 749.619,726.344 771.589,663.172 793.559,742.137 815.528,710.551 837.498,647.379 859.468,663.172 881.438,694.758 903.408,694.758 925.377,647.379 947.347,647.379 969.317,663.172 991.287,726.344 1013.26,647.379 1035.23,710.551 1057.2,694.758 1079.17,663.172 1101.14,631.586 1123.11,631.586 1145.08,710.551 1167.05,647.379 1189.02,631.586 1210.98,710.551 1232.95,710.551 1254.92,647.379 1276.89,694.758 1298.86,631.586 1320.83,647.379 1342.8,678.965 1364.77,694.758 1386.74,678.965 1408.71,726.344 1430.68,663.172 1452.65,678.965 1474.62,726.344 1496.59,710.551 1518.56,726.344 1540.53,710.551 1562.5,710.551 1584.47,647.379 1606.44,663.172 1628.41,663.172 1650.38,678.965 1672.35,710.551 1694.32,647.379 1716.29,663.172 1738.26,694.758 1760.23,663.172 1782.2,647.379 1804.17,678.965 1826.14,694.758 1848.11,663.172 1870.08,631.586 1892.05,742.137 1914.02,694.758 1935.99,663.172 1957.96,694.758 1979.93,694.758 2001.9,742.137 2023.87,710.551 2045.84,631.586 2067.81,647.379 2089.78,678.965 2111.75,647.379 2133.72,742.137 2155.69,726.344 2177.66,647.379 2199.63,694.758 2221.6,647.379 2243.57,631.586 2265.54,631.586 2287.51,615.793 "/>
<polyline clip-path="url(#clip362)" style="stroke:#ca3b33; stroke-linecap:round; stroke-linejoin:round; stroke-width:4; stroke-opacity:1; fill:none" points="134.464,331.519 156.434,299.933 178.404,347.312 200.374,457.863 222.343,489.449 244.313,410.484 266.283,331.519 288.253,378.898 310.223,378.898 332.193,378.898 354.162,378.898 376.132,347.312 398.102,378.898 420.072,394.691 442.042,331.519 464.011,347.312 485.981,426.277 507.951,394.691 529.921,347.312 551.891,426.277 573.86,378.898 595.83,410.484 617.8,410.484 639.77,394.691 661.74,347.312 683.709,442.07 705.679,347.312 727.649,426.277 749.619,394.691 771.589,315.726 793.559,347.312 815.528,426.277 837.498,426.277 859.468,394.691 881.438,315.726 903.408,347.312 925.377,331.519 947.347,394.691 969.317,394.691 991.287,363.105 1013.26,410.484 1035.23,347.312 1057.2,347.312 1079.17,410.484 1101.14,347.312 1123.11,299.933 1145.08,378.898 1167.05,442.07 1189.02,347.312 1210.98,426.277 1232.95,473.656 1254.92,363.105 1276.89,331.519 1298.86,394.691 1320.83,394.691 1342.8,315.726 1364.77,363.105 1386.74,363.105 1408.71,363.105 1430.68,284.139 1452.65,315.726 1474.62,347.312 1496.59,378.898 1518.56,378.898 1540.53,410.484 1562.5,426.277 1584.47,347.312 1606.44,410.484 1628.41,442.07 1650.38,347.312 1672.35,284.139 1694.32,426.277 1716.29,363.105 1738.26,315.726 1760.23,347.312 1782.2,315.726 1804.17,378.898 1826.14,378.898 1848.11,331.519 1870.08,394.691 1892.05,442.07 1914.02,363.105 1935.99,426.277 1957.96,331.519 1979.93,347.312 2001.9,426.277 2023.87,426.277 2045.84,426.277 2067.81,315.726 2089.78,315.726 2111.75,410.484 2133.72,394.691 2155.69,410.484 2177.66,426.277 2199.63,378.898 2221.6,363.105 2243.57,378.898 2265.54,315.726 2287.51,394.691 "/>
</svg>
